<svg width="1200" height="300" viewBox="0 0 1200 300" xmlns="http://www.w3.org/2000/svg" role="img" aria-label="Top 5 projects: RAGBrain, open-design, Immortal, memory-bank, mlflow">
  <defs>
    <linearGradient id="g1" x1="0" y1="0" x2="1" y2="1">
      <stop offset="0" stop-color="#4C1D95"/><stop offset="0.55" stop-color="#E50914"/><stop offset="1" stop-color="#0891B2"/>
    </linearGradient>
    <linearGradient id="g2" x1="0" y1="0" x2="1" y2="1">
      <stop offset="0" stop-color="#1E3A8A"/><stop offset="1" stop-color="#38BDF8"/>
    </linearGradient>
    <linearGradient id="g3" x1="0" y1="0" x2="1" y2="1">
      <stop offset="0" stop-color="#064E3B"/><stop offset="1" stop-color="#00ADD8"/>
    </linearGradient>
    <linearGradient id="g4" x1="0" y1="0" x2="1" y2="1">
      <stop offset="0" stop-color="#7C2D12"/><stop offset="1" stop-color="#F59E0B"/>
    </linearGradient>
    <linearGradient id="g5" x1="0" y1="0" x2="1" y2="1">
      <stop offset="0" stop-color="#312E81"/><stop offset="1" stop-color="#6366F1"/>
    </linearGradient>
    <linearGradient id="shade" x1="0" y1="0" x2="0" y2="1">
      <stop offset="0.45" stop-color="#000" stop-opacity="0"/><stop offset="1" stop-color="#000" stop-opacity="0.78"/>
    </linearGradient>
    <filter id="drop" x="-30%" y="-30%" width="170%" height="170%">
      <feDropShadow dx="0" dy="5" stdDeviation="7" flood-color="#000" flood-opacity="0.6"/>
    </filter>
  </defs>

  <rect width="1200" height="300" fill="#141414"/>
  <text x="20" y="30" font-family="Arial Black, Impact, sans-serif" font-size="17" font-weight="900" fill="#ffffff">Top 5 in Tech Today</text>
  <text x="1180" y="30" text-anchor="end" font-family="Arial, Helvetica, sans-serif" font-size="10.5" letter-spacing="2" fill="#5a5a5a">RANKED BY IMPACT</text>

  <!-- 1 · RAGBrain -->
  <g>
    <text x="14" y="252" font-family="Arial Black, Impact, sans-serif" font-size="188" font-weight="900"
          fill="#141414" stroke="#4a4a4a" stroke-width="3">1</text>
    <g filter="url(#drop)">
      <rect x="96" y="56" width="132" height="196" rx="9" fill="url(#g1)"/>
      <g stroke="#fff" stroke-opacity="0.5" fill="none">
        <circle cx="162" cy="118" r="15"/><circle cx="162" cy="118" r="27" stroke-opacity="0.3"/><circle cx="162" cy="118" r="39" stroke-opacity="0.16"/>
      </g>
      <circle cx="162" cy="118" r="5" fill="#fff"/>
      <line x1="162" y1="118" x2="162" y2="80" stroke="#fff" stroke-opacity="0.75" stroke-width="2"/>
      <rect x="96" y="152" width="132" height="100" fill="url(#shade)"/>
      <rect x="96" y="56" width="132" height="196" rx="9" fill="none" stroke="#E50914" stroke-width="2"/>
      <text x="108" y="224" font-family="Arial Black, Impact, sans-serif" font-size="15" font-weight="900" fill="#ffffff">RAGBrain</text>
      <text x="108" y="240" font-family="Arial, Helvetica, sans-serif" font-size="9.5" fill="#46d369">98% Match &#183; on PyPI</text>
    </g>
    <text x="14" y="276" font-family="Arial, Helvetica, sans-serif" font-size="10.5" fill="#8a8a8a">Bi-temporal RAG &#183; Python</text>
  </g>

  <!-- 2 · open-design -->
  <g transform="translate(236,0)">
    <text x="14" y="252" font-family="Arial Black, Impact, sans-serif" font-size="188" font-weight="900"
          fill="#141414" stroke="#4a4a4a" stroke-width="3">2</text>
    <g filter="url(#drop)">
      <rect x="96" y="56" width="132" height="196" rx="9" fill="url(#g2)"/>
      <g fill="#fff" fill-opacity="0.28">
        <rect x="122" y="92" width="46" height="46" rx="5"/>
        <circle cx="186" cy="115" r="24"/>
        <rect x="140" y="132" width="52" height="30" rx="15" fill-opacity="0.2"/>
      </g>
      <rect x="96" y="152" width="132" height="100" fill="url(#shade)"/>
      <text x="108" y="224" font-family="Arial Black, Impact, sans-serif" font-size="14" font-weight="900" fill="#ffffff">open-design</text>
      <text x="108" y="240" font-family="Arial, Helvetica, sans-serif" font-size="9.5" fill="#46d369">Maintainer &#183; 465 commits</text>
    </g>
    <text x="14" y="276" font-family="Arial, Helvetica, sans-serif" font-size="10.5" fill="#8a8a8a">Design platform &#183; TypeScript</text>
  </g>

  <!-- 3 · Immortal -->
  <g transform="translate(472,0)">
    <text x="14" y="252" font-family="Arial Black, Impact, sans-serif" font-size="188" font-weight="900"
          fill="#141414" stroke="#4a4a4a" stroke-width="3">3</text>
    <g filter="url(#drop)">
      <rect x="96" y="56" width="132" height="196" rx="9" fill="url(#g3)"/>
      <polyline points="106,120 130,120 140,96 152,144 164,110 176,128 188,120 218,120"
                fill="none" stroke="#fff" stroke-opacity="0.8" stroke-width="2.5" stroke-linejoin="round"/>
      <circle cx="152" cy="144" r="3.5" fill="#fff"/>
      <rect x="96" y="152" width="132" height="100" fill="url(#shade)"/>
      <text x="108" y="224" font-family="Arial Black, Impact, sans-serif" font-size="15" font-weight="900" fill="#ffffff">Immortal</text>
      <text x="108" y="240" font-family="Arial, Helvetica, sans-serif" font-size="9.5" fill="#46d369">Self-healing &#183; 79 packages</text>
    </g>
    <text x="14" y="276" font-family="Arial, Helvetica, sans-serif" font-size="10.5" fill="#8a8a8a">Infra reliability &#183; Go</text>
  </g>

  <!-- 4 · memory-bank -->
  <g transform="translate(708,0)">
    <text x="14" y="252" font-family="Arial Black, Impact, sans-serif" font-size="188" font-weight="900"
          fill="#141414" stroke="#4a4a4a" stroke-width="3">4</text>
    <g filter="url(#drop)">
      <rect x="96" y="56" width="132" height="196" rx="9" fill="url(#g4)"/>
      <g fill="#fff">
        <rect x="122" y="92"  width="80" height="13" rx="6" fill-opacity="0.85"/>
        <rect x="122" y="112" width="80" height="13" rx="6" fill-opacity="0.55"/>
        <rect x="122" y="132" width="80" height="13" rx="6" fill-opacity="0.3"/>
      </g>
      <rect x="96" y="152" width="132" height="100" fill="url(#shade)"/>
      <text x="108" y="224" font-family="Arial Black, Impact, sans-serif" font-size="13.5" font-weight="900" fill="#ffffff">memory-bank</text>
      <text x="108" y="240" font-family="Arial, Helvetica, sans-serif" font-size="9.5" fill="#46d369">Agent memory &#183; 44 stars</text>
    </g>
    <text x="14" y="276" font-family="Arial, Helvetica, sans-serif" font-size="10.5" fill="#8a8a8a">Persistent context &#183; Python</text>
  </g>

  <!-- 5 · mlflow -->
  <g transform="translate(944,0)">
    <text x="14" y="252" font-family="Arial Black, Impact, sans-serif" font-size="188" font-weight="900"
          fill="#141414" stroke="#4a4a4a" stroke-width="3">5</text>
    <g filter="url(#drop)">
      <rect x="96" y="56" width="132" height="196" rx="9" fill="url(#g5)"/>
      <g stroke="#fff" stroke-opacity="0.75" stroke-width="2.5" fill="none">
        <path d="M112 138 C 140 138, 140 100, 168 100"/>
        <path d="M168 100 C 196 100, 196 138, 214 138"/>
      </g>
      <circle cx="112" cy="138" r="4.5" fill="#fff"/><circle cx="168" cy="100" r="4.5" fill="#fff"/><circle cx="214" cy="138" r="4.5" fill="#fff"/>
      <rect x="96" y="152" width="132" height="100" fill="url(#shade)"/>
      <text x="108" y="224" font-family="Arial Black, Impact, sans-serif" font-size="15" font-weight="900" fill="#ffffff">mlflow</text>
      <text x="108" y="240" font-family="Arial, Helvetica, sans-serif" font-size="9.5" fill="#46d369">Contributor &#183; upstream</text>
    </g>
    <text x="14" y="276" font-family="Arial, Helvetica, sans-serif" font-size="10.5" fill="#8a8a8a">ML lifecycle &#183; open source</text>
  </g>
</svg>
